<svg xmlns="http://www.w3.org/2000/svg" viewBox="0 0 181.76 59.29"><path d="M41.75,53.12c4.09-1.18,14.63-1.47,27.85-1.27,1.3,0,6.31,4.1,7.66,4.12s-1.13-4,.17-4c.91,0,3.91,2.94,4.83,3s-.2-2.83.75-2.8c1.21,0,3,2.76,4.25,2.8.72,0,.28-3,1-3,33.36,1.16,72.15,4.53,72.15,4.53,12.09-.29,21.7-12.71,21.34-27.61l0-1.23C181.36,12.77,171.17.82,159.08,1.11c0,0-93.87,17.47-114,15.91s-35-3.83-36.3,14.79C6.82,60.28,26.62,57.48,41.75,53.12Z" style="fill:#404040"/><rect x="1.82" y="8.5" width="46" height="49.05" rx="12" ry="12" transform="translate(57.15 7.31) rotate(88.44)" style="fill:#c25b00"/><rect x="15.06" width="29.39" height="29.39" rx="14.69" ry="14.69" transform="translate(43.63 -15.45) rotate(88.44)" style="fill:#c25b00"/><rect x="31.14" y="23.82" width="49" height="22" rx="11" ry="11" transform="translate(94.38 -18.17) rotate(94.13)" style="fill:#fff"/></svg>