<svg xmlns="http://www.w3.org/2000/svg" viewBox="0 0 138.55 192.44"><title>krampus__head</title><path d="M52.55,95s-2,12,7,14,18-6,18-6,30-27,27-50-17-50-17-50,7,37-4,54S52.55,95,52.55,95Z" style="fill:#666"/><path d="M46.43,186h60c8.12-7,32.12,11.6,32.12,5l-20.12-91a12,12,0,0,0-12-12l-60-10a12,12,0,0,0-12,12v26.17s-23,14.66-20,13.24S9.55,130,7.55,133s0,8,0,8-1.91,13.88,1,14,36,1,36,1-32.65,1.49-35.32,1.75S10.55,181,10.55,181c3.54,5.3,13.06,6.09,21.64,5.85C38.18,186.68,43.71,186,46.43,186Z" style="fill:#364a58"/><circle cx="50.43" cy="108" r="6" style="fill:#fff"/><path d="M82.43,132s27.12-16,29.12-22c4.12-12.33-29.12-4-29.12-4Z" style="fill:#fa9994"/><path d="M62.55,92s-2,12,7,14,18-6,18-6,30-27,27-50-17-50-17-50,7,37-4,54S62.55,92,62.55,92Z" style="fill:#666"/><circle cx="12.05" cy="137.5" r="2.5" style="fill:#404040"/><path d="M17.55,157s-11,1-10,13c.63,7.48-4-4-4-4s-2,5-3,5-2-14,10-15S17.55,157,17.55,157Z" style="fill:#e61a4b"/><polygon points="12.55 155 17.55 155 14.55 171 12.55 155" style="fill:#fff"/></svg>