<svg xmlns="http://www.w3.org/2000/svg" viewBox="0 0 154.65 261.92"><path d="M27.63,22.39c19.07-38.14,74.85-25,105,20l-8-1,17,18-10-3,19,27-10-3,12,17s-9.28-2.87-8,0c2.41,5.43,9,11.41,10,17,.44,2.47-6.53-2.44-6,0,10,46-6.29,79.5-12,105-4,17.94-12.6,34.87-36,39-38.81,6.85-64.26,3.09-78.22-5.76-2-1.26,3.75-8.78,2.22-10.24-1.28-1.21-6.05,6.32-7,5-1.12-1.54,2.7-10.33,2-12-.6-1.42-4.7,3.49-5,2-.43-2.11,4.84-9.79,5-12,.06-.88-5.15,1.89-5,1,.27-1.63,5.7-9.48,6-11,.56-2.89-5.62,2.52-5,0,9.58-39.12,26-22-1-76-8.44-16.88-17-40.21-14-60C4.63,53.39,15.63,46.39,27.63,22.39Z" style="fill:#364a58"/></svg>