<svg xmlns="http://www.w3.org/2000/svg" viewBox="0 0 130.32 126.08"><path d="M102.69,116.47c-2.83.89.9,9.23-2.07,9.38-1.5.07-5.6-6.51-7.13-6.6S90,125,88.37,124.77c-2.05-.32-3.74-3.12-5.09-4.71-4.07-4.8-8,4.17-9.2,3.8-23.55-7.68-38.74-27.69-38.74-27.69C24.43,86.06,5.61,61.05.63,41.47c-2.06-8.12.62-32,12.48-38.52,9-5,28.64-2.78,47.05.16C62.94,3.55,76.5.79,76.5.79l-9.22,9.94L87.71,6,78.5,15l24.51-6L90.72,23.21l17.38-6.5s-8.54,10.78-9.23,14.05c-3.72,17.42-12.28,8.14-7.14,23.35,4.49,13.28,57.57,48.62,31.35,70-1.18,1-4.6-7.6-6.1-6.68s-4.3,7.81-6.15,8.68C110,126.47,103.67,116.16,102.69,116.47Z" style="fill:#404040"/></svg>