<svg xmlns="http://www.w3.org/2000/svg" viewBox="0 0 110.3 125.9"><path d="M4.43,123.27C-14.3,105,50.66,18,50.66,18,65.48.27,88.29-5.33,101.36,5.57h0c13.06,10.9,11.64,34.35-3.17,52.1C98.19,57.67,23.16,141.51,4.43,123.27Z" style="fill:#465b68"/><path d="M4.42,123.28C-11.71,108.2,20.7,59.77,31.06,45.21,33,42.56,34.11,41,34.11,41c11-18,8-6,34,8s30,9,28,13C96.11,62,23.5,141.1,4.42,123.28Z" style="fill:#343839"/><path d="M83.37,71.18,37,45.35A8.38,8.38,0,0,1,33.74,34l5-9a8.39,8.39,0,0,1,11.37-3.24L96.5,47.59c6.94,3.54,5.47,7.35,3.24,11.37l-5,9A8.39,8.39,0,0,1,83.37,71.18Z" style="fill:#fff"/></svg>