<svg xmlns="http://www.w3.org/2000/svg" viewBox="0 0 145.85 201.54"><rect x="34" y="77" width="84" height="98" rx="12" ry="12" style="fill:#ffcf91"/><circle cx="121" cy="124" r="13" style="fill:#fa9994"/><path d="M78,103s2,23,9,26,31,0,35,8c7.28,14.56-18,5-15,11,.59,1.18,18-3,22,1,3.54,3.54,2,12,2,12s-1,10,1,14,2-2,9,3c5.21,3.72,8,22-1,22-13.34,0-42,5-49-3s-22-33-21-40,0-26,0-26V105s-1-4,2-4A12.68,12.68,0,0,1,78,103Z" style="fill:#e6e6e6"/><path d="M12.5,8.5s48.5-.5,59,0,25,30,25,30L34,47.94S33,38,32,27,12.5,8.5,12.5,8.5Z" style="fill:#e61a4b"/><rect x="32" y="40" width="76" height="42" rx="12" ry="12" transform="translate(-8.15 10.86) rotate(-8.39)" style="fill:#e61a4b"/><circle cx="102" cy="107" r="6" style="fill:#404040"/><path d="M70,131s-13,2-13-13c0-13,13-13,13-13Z" style="fill:#fa9994"/><rect x="27" y="73" width="93" height="27" rx="12" ry="12" transform="translate(-11.83 11.65) rotate(-8.39)" style="fill:#fff"/><circle cx="12.5" cy="12.5" r="12.5" style="fill:#fff"/></svg>