<svg xmlns="http://www.w3.org/2000/svg" viewBox="0 0 181.76 59.29"><title>santa__right-arm-lower</title><path d="M140,53.12C124.88,48.76,21.35,56.5,21.35,56.5,9.26,56.21-.35,43.79,0,28.89l0-1.23C.4,12.77,10.59.82,22.68,1.11c0,0,93.87,17.47,114,15.91s35-3.83,36.3,14.79C174.94,60.28,155.14,57.48,140,53.12Z" style="fill:#b30e33"/><rect x="133.94" y="8.5" width="46" height="49.05" rx="12" ry="12" transform="translate(194.22 -122.96) rotate(91.56)" style="fill:#c25b00"/><rect x="137.31" width="29.39" height="29.39" rx="14.69" ry="14.69" transform="translate(170.84 -136.86) rotate(91.56)" style="fill:#c25b00"/><rect x="101.62" y="23.82" width="49" height="22" rx="11" ry="11" transform="translate(151.77 -93.47) rotate(85.87)" style="fill:#fff"/></svg>