<?xml version="1.0" standalone="no"?>
<!DOCTYPE svg PUBLIC "-//W3C//DTD SVG 20010904//EN"
 "http://www.w3.org/TR/2001/REC-SVG-20010904/DTD/svg10.dtd">
<svg version="1.0" xmlns="http://www.w3.org/2000/svg"
 width="808.000000pt" height="808.000000pt" viewBox="0 0 808.000000 808.000000"
 preserveAspectRatio="xMidYMid meet">
<metadata>
Created by potrace 1.11, written by Peter Selinger 2001-2013
</metadata>
<g transform="translate(0.000000,808.000000) scale(0.100000,-0.100000)"
fill="#000000" stroke="none">
<path d="M1474 8056 c-290 -94 -432 -411 -307 -686 25 -54 91 -143 125 -168 9
-7 23 -19 31 -26 23 -23 113 -65 173 -81 62 -16 136 -20 203 -11 51 8 169 53
189 73 7 7 17 13 22 13 16 0 122 114 143 155 12 22 29 60 37 84 l16 44 39 -34
c47 -40 126 -124 139 -148 5 -9 13 -18 17 -21 12 -9 64 -103 76 -140 22 -63
32 -134 48 -335 4 -55 7 -92 20 -210 2 -22 6 -69 9 -105 4 -36 8 -85 11 -110
2 -25 7 -71 10 -103 2 -32 7 -62 10 -66 2 -5 -9 -28 -26 -51 -36 -50 -76 -135
-85 -182 -10 -53 -11 -156 -2 -212 9 -54 16 -101 22 -151 2 -16 6 -43 10 -60
3 -16 7 -51 10 -77 2 -26 7 -51 9 -55 3 -5 8 -37 12 -73 10 -87 13 -109 20
-150 3 -19 8 -53 11 -75 3 -22 7 -50 10 -62 2 -13 4 -25 5 -28 0 -2 7 -21 15
-41 15 -36 7 -64 -18 -64 -31 0 -169 -121 -189 -165 -5 -11 -18 -34 -29 -52
-60 -100 -61 -334 -2 -498 33 -93 122 -204 193 -241 16 -8 30 -18 30 -22 1 -4
2 -556 3 -1227 2 -918 6 -1232 15 -1270 38 -157 180 -301 341 -346 34 -9 206
-13 690 -15 355 -1 650 -2 656 -3 6 0 16 -11 22 -24 10 -20 34 -63 102 -182
12 -22 31 -52 41 -67 11 -14 19 -31 19 -37 0 -6 4 -11 9 -11 5 0 14 -13 21
-30 7 -16 16 -30 21 -30 5 0 9 -5 9 -11 0 -10 63 -114 88 -144 4 -5 17 -25 27
-42 11 -18 23 -33 27 -33 4 0 8 -5 8 -11 0 -11 148 -210 193 -260 62 -69 222
-136 368 -154 19 -3 57 -8 84 -12 107 -15 624 -8 874 12 24 2 87 7 140 10 53
4 119 9 146 11 44 3 163 9 355 18 152 7 230 128 225 353 -3 136 -9 176 -46
288 -51 152 -107 224 -218 284 -73 38 -123 46 -183 28 -41 -13 -49 -13 -68 0
-26 18 -57 87 -64 140 -3 21 -8 52 -11 68 -10 46 -11 281 -2 360 38 331 -10
512 -149 560 -71 25 -105 29 -244 29 l-126 0 1 35 c0 34 2 36 45 43 148 25
198 119 141 268 -27 71 -26 76 7 74 37 -1 122 29 189 67 156 89 258 271 256
454 -3 194 -110 367 -283 456 -25 13 -49 25 -55 26 -5 1 -33 8 -62 16 -53 15
-199 18 -219 5 -7 -5 -14 -2 -17 5 -10 28 -2 884 9 898 49 63 69 211 49 354
-14 106 -58 245 -77 245 -5 0 -8 7 -8 15 0 19 -83 103 -140 141 -46 31 -110
57 -168 69 -33 7 -33 7 -31 63 2 51 -3 110 -15 182 -3 14 -10 61 -16 105 -6
44 -13 91 -16 105 -5 31 -10 63 -24 165 -15 104 -21 143 -26 169 -2 11 -6 43
-10 70 -3 28 -12 66 -21 85 -8 20 -16 41 -17 46 -28 113 -196 250 -343 279
-56 11 -59 13 -83 61 -14 28 -28 52 -31 55 -3 3 -23 37 -44 75 -62 113 -194
323 -260 413 -33 46 -67 94 -75 106 -67 103 -269 303 -360 357 -112 66 -99 65
-1133 65 l-919 -1 -34 65 c-29 55 -95 134 -146 175 -13 11 -100 53 -153 75
-16 7 -73 14 -125 16 -78 2 -108 -1 -166 -20z"/>
</g>
</svg>
